<?xml version="1.0" standalone="no"?><!DOCTYPE svg PUBLIC "-//W3C//DTD SVG 1.1//EN" "http://www.w3.org/Graphics/SVG/1.1/DTD/svg11.dtd"><svg t="1548051792409" class="icon" style="" viewBox="0 0 1024 1024" version="1.1" xmlns="http://www.w3.org/2000/svg" p-id="3082" xmlns:xlink="http://www.w3.org/1999/xlink" width="200" height="200"><defs><style type="text/css"></style></defs><path d="M942.45027 1023.991945 66.282408 1023.991945c-36.293997 0-65.689859-29.395862-65.689859-65.689859L0.592549 169.744868c0-36.26077 29.395862-65.690866 65.689859-65.690866l219.059838 0 0-87.609637 65.689859 0 0 87.609637 306.668468 0 0-87.609637 65.690866 0 0 87.609637 219.058831 0c36.293997 0 65.690866 29.430096 65.690866 65.690866l0 788.556211C1008.140129 994.595076 978.744267 1023.991945 942.45027 1023.991945L942.45027 1023.991945zM942.45027 235.468961c0-36.293997-29.430096-65.724093-65.7251-65.724093L723.391439 169.744868l0 65.724093-65.690866 0 0-65.724093L351.032105 169.744868l0 65.724093-65.689859 0 0-65.724093L132.007508 169.744868c-36.295004 0-65.7251 29.429089-65.7251 65.724093l0 131.414959 876.166855 0L942.449263 235.468961 942.45027 235.468961zM942.45027 432.608014 66.282408 432.608014 66.282408 892.576986c0 36.293997 29.430096 65.7251 65.7251 65.7251L876.72517 958.302086c36.293997 0 65.7251-29.430096 65.7251-65.7251L942.45027 432.608014 942.45027 432.608014zM351.032105 739.242248l438.083427 0 0 65.7251-438.083427 0L351.032105 739.242248 351.032105 739.242248zM351.032105 585.942751l438.083427 0 0 65.690866-438.083427 0L351.032105 585.942751 351.032105 585.942751zM219.616139 739.242248l65.7251 0 0 65.7251-65.7251 0L219.616139 739.242248 219.616139 739.242248zM219.616139 585.942751l65.7251 0 0 65.690866-65.7251 0L219.616139 585.942751 219.616139 585.942751z" p-id="3083"></path></svg>