<?xml version="1.0" standalone="no"?><!DOCTYPE svg PUBLIC "-//W3C//DTD SVG 1.1//EN" "http://www.w3.org/Graphics/SVG/1.1/DTD/svg11.dtd"><svg t="1555136852670" class="icon" style="" viewBox="0 0 1024 1024" version="1.1" xmlns="http://www.w3.org/2000/svg" p-id="3241" xmlns:xlink="http://www.w3.org/1999/xlink" width="200" height="200"><defs><style type="text/css"></style></defs><path d="M 902 902 H 182 c -49.6875 0 -90 -40.3125 -90 -90 V 153.875 c 0 -16.5938 13.4063 -30 30 -30 s 30 13.4063 30 30 v 658.125 c 0 16.5938 13.4063 30 30 30 h 720 c 16.5938 0 30 13.4063 30 30 s -13.4063 30 -30 30 Z" p-id="3242" fill="#bfcbd9"></path><path d="M 478.25 752 c -16.5938 0 -30 -13.4063 -30 -30 V 153.875 c 0 -16.5938 13.4063 -30 30 -30 s 30 13.4063 30 30 v 568.125 c 0 16.5938 -13.4063 30 -30 30 Z M 822.875 752 c -16.5938 0 -30 -13.4063 -30 -30 V 153.875 c 0 -16.5938 13.4063 -30 30 -30 s 30 13.4063 30 30 v 568.125 c 0 16.5938 -13.4063 30 -30 30 Z M 306.687 752 c -16.5938 0 -30 -13.4063 -30 -30 V 352.437 c 0 -16.5938 13.4063 -30 30 -30 s 30 13.4063 30 30 V 722 c 0 16.5938 -13.4063 30 -30 30 Z M 651.313 752 c -16.5938 0 -30 -13.4063 -30 -30 V 352.437 c 0 -16.5938 13.4063 -30 30 -30 s 30 13.4063 30 30 V 722 c 0 16.5938 -13.4063 30 -30 30 Z" p-id="3243" fill="#bfcbd9"></path></svg>