<?xml version="1.0" standalone="no"?><!DOCTYPE svg PUBLIC "-//W3C//DTD SVG 1.1//EN" "http://www.w3.org/Graphics/SVG/1.1/DTD/svg11.dtd"><svg t="1667543990662" class="icon" viewBox="0 0 1024 1024" version="1.1" xmlns="http://www.w3.org/2000/svg" p-id="3331" xmlns:xlink="http://www.w3.org/1999/xlink" width="200" height="200"><path d="M0 0h1024v1024H0z" fill="#FFFFFF" p-id="3332" data-spm-anchor-id="a313x.7781069.0.i2" class="selected"></path><path d="M772 984H252c-44.112 0-80-35.888-80-80V120c0-44.112 35.888-80 80-80h520c44.112 0 80 35.888 80 80v784c0 44.112-35.888 80-80 80z" fill="#D8DDE3" p-id="3333" data-spm-anchor-id="a313x.7781069.0.i1" class="selected"></path><path d="M252 80c-22.056 0-40 17.944-40 40v784c0 22.056 17.944 40 40 40h520c22.056 0 40-17.944 40-40V120c0-22.056-17.944-40-40-40H252m0-80h520c66.274 0 120 53.726 120 120v784c0 66.274-53.726 120-120 120H252c-66.274 0-120-53.726-120-120V120c0-66.274 53.726-120 120-120z" fill="#505873" p-id="3334"></path><path d="M772 984H252c-44.112 0-80-35.888-80-80v-140h680v140c0 44.112-35.888 80-80 80z" fill="#FFFFFF" p-id="3335" data-spm-anchor-id="a313x.7781069.0.i4" class="selected"></path><path d="M212 804v100c0 22.056 17.944 40 40 40h520c22.056 0 40-17.944 40-40v-100H212m-80-80h760v180c0 66.274-53.726 120-120 120H252c-66.274 0-120-53.726-120-120v-180z" fill="#505873" p-id="3336" data-spm-anchor-id="a313x.7781069.0.i3" class="selected"></path><path d="M511.236 822.002a47 47 0 1 1-47.236 47 47.118 47.118 0 0 1 47.236-47z" fill="#FF402A" p-id="3337"></path><path d="M582 192h-140a40 40 0 0 1 0-80h140a40 40 0 0 1 0 80z" fill="#505873" p-id="3338"></path></svg>