<?xml version="1.0" standalone="no"?><!DOCTYPE svg PUBLIC "-//W3C//DTD SVG 1.1//EN" "http://www.w3.org/Graphics/SVG/1.1/DTD/svg11.dtd"><svg t="1543979123545" class="icon" style="" viewBox="0 0 1024 1024" version="1.1" xmlns="http://www.w3.org/2000/svg" p-id="1177" xmlns:xlink="http://www.w3.org/1999/xlink" width="200" height="200"><defs><style type="text/css"></style></defs><path d="M985.6 854.4c-41.6-35.2-89.6-57.6-140.8-76.8-44.8-16-89.6-32-131.2-51.2-44.8-19.2-54.4-60.8-32-105.6 6.4-12.8 16-25.6 28.8-35.2 35.2-28.8 54.4-64 67.2-105.6 6.4-25.6 19.2-44.8 41.6-60.8 38.4-25.6 44.8-64 41.6-105.6 0-16-6.4-28.8-22.4-32-25.6-6.4-25.6-25.6-28.8-41.6-3.2-12.8-3.2-22.4-6.4-35.2-19.2-112-115.2-198.4-230.4-201.6-124.8-3.2-227.2 76.8-249.6 195.2L313.6 256c3.2 6.4 0 16-12.8 19.2-22.4 6.4-28.8 25.6-32 44.8-3.2 44.8 19.2 83.2 64 96 108.8 35.2 160 115.2 172.8 227.2 9.6 108.8 3.2 214.4 6.4 323.2 3.2 38.4 16 54.4 54.4 54.4h358.4c41.6 0 83.2-25.6 92.8-54.4 16-38.4 3.2-83.2-32-112z" fill="#bfcbd9" p-id="1178"></path><path d="M380.8 732.8c-12.8 0-19.2-3.2-19.2-19.2V640c-6.4-80-51.2-131.2-118.4-137.6-86.4-6.4-144 32-163.2 115.2-6.4 28.8-6.4 57.6-3.2 86.4 3.2 25.6-6.4 32-28.8 28.8-38.4 0-48 9.6-48 44.8v201.6c0 35.2 6.4 41.6 41.6 41.6h345.6c41.6 0 48-6.4 48-48v-188.8c0-44.8-3.2-51.2-54.4-51.2z m-76.8-3.2c-28.8 9.6-60.8 0-83.2 3.2H192c-67.2 0-67.2 0-67.2-67.2 0-28.8 6.4-54.4 22.4-76.8 35.2-48 115.2-38.4 140.8 16 22.4 38.4 16 80 16 124.8z" fill="#bfcbd9" p-id="1179"></path></svg>