<?xml version="1.0" standalone="no"?><!DOCTYPE svg PUBLIC "-//W3C//DTD SVG 1.1//EN" "http://www.w3.org/Graphics/SVG/1.1/DTD/svg11.dtd"><svg t="1556616027370" class="icon" style="" viewBox="0 0 1024 1024" version="1.1" xmlns="http://www.w3.org/2000/svg" p-id="2297" xmlns:xlink="http://www.w3.org/1999/xlink" width="200" height="200"><defs><style type="text/css"></style></defs><path d="M520 48C780.272 48 992 259.744 992 520S780.272 992 520 992 48 780.256 48 520 259.728 48 520 48z m0 896C753.792 944 944 753.792 944 520S753.792 96 520 96 96 286.208 96 520 286.208 944 520 944z m129.6-516.368c101.456 0 184 82.56 184 184 0 101.472-82.544 184-184 184a24 24 0 1 1 0-48c74.992 0 136-61.008 136-136 0-74.976-61.008-136-136-136H299.888l162.688 162.688a24.032 24.032 0 0 1-16.976 40.96c-6.144 0-12.288-2.32-16.976-7.008L208 451.632 428.624 231.04a24 24 0 0 1 33.952 33.92L299.888 427.664H649.6z" fill="#797979" p-id="2298"></path></svg>