<svg t="1662100375195" class="icon" viewBox="0 0 1024 1024" version="1.1" xmlns="http://www.w3.org/2000/svg" p-id="2445" width="128" height="128"><path d="M812 933.41H212c-71.68 0-130-58.32-130-130v-80c0-16.56 13.43-30 30-30 38.59 0 70-31.41 70-70s-31.41-69.98-70-69.98c-16.57 0-30-13.44-30-30.01v-80c0-71.68 58.32-130 130-130h600c71.68 0 130 58.32 130 130v80c0 16.57-13.44 30.01-30 30.01-38.59 0-70 31.39-70 69.98s31.41 70 70 70c16.56 0 30 13.44 30 30v80c0 71.68-58.32 130-130 130zM142 749.92v53.5c0 38.59 31.41 70 70 70h600c38.59 0 70-31.41 70-70v-53.5c-57.27-13.57-100-65.14-100-126.5 0-61.35 42.73-112.92 100-126.49v-53.5c0-38.59-31.41-70-70-70H212c-38.59 0-70 31.41-70 70v53.5c57.27 13.57 100 65.15 100 126.49 0 61.36-42.73 112.92-100 126.5z" p-id="2446" fill="#dbdbdb"></path><path d="M312 433.42c-16.57 0-30-13.43-30-30v-60c0-16.57 13.43-30 30-30s30 13.43 30 30v60c0 16.58-13.43 30-30 30zM312 933.41c-16.57 0-30-13.44-30-30v-60c0-16.56 13.43-30 30-30s30 13.44 30 30v60c0 16.57-13.43 30-30 30zM312 766.75c-16.57 0-30-13.44-30-30v-60c0-16.56 13.43-30 30-30s30 13.44 30 30v60c0 16.57-13.43 30-30 30zM312 600.09c-16.57 0-30-13.44-30-30v-60.01c0-16.57 13.43-30 30-30s30 13.43 30 30v60.01c0 16.57-13.43 30-30 30z" p-id="2447" fill="#dbdbdb"></path><path d="M562.98 807.36c-16.56 0-30-13.44-30-30v-220c0-16.56 13.44-30 30-30s30 13.44 30 30v220c0 16.56-13.44 30-30 30z" p-id="2448" fill="#dbdbdb"></path><path d="M562.98 587.36c-7.68 0-15.35-2.93-21.21-8.79l-87.88-87.88c-11.72-11.71-11.72-30.71 0-42.42 11.72-11.72 30.7-11.72 42.42 0l87.88 87.88c11.72 11.72 11.72 30.7 0 42.42a29.91 29.91 0 0 1-21.21 8.79z" p-id="2449" fill="#dbdbdb"></path><path d="M562.98 587.36c-7.68 0-15.35-2.93-21.21-8.79-11.72-11.72-11.72-30.7 0-42.42l87.89-87.88c11.72-11.72 30.7-11.72 42.42 0s11.72 30.71 0 42.42l-87.89 87.88a29.91 29.91 0 0 1-21.21 8.79z" p-id="2450" fill="#dbdbdb"></path><path d="M666.08 587.36h-206.2c-16.57 0-30-13.44-30-30s13.43-30 30-30h206.2c16.56 0 30 13.44 30 30s-13.44 30-30 30z" p-id="2451" fill="#dbdbdb"></path><path d="M666.08 687.36h-206.2c-16.57 0-30-13.44-30-30s13.43-30 30-30h206.2c16.56 0 30 13.44 30 30s-13.44 30-30 30z" p-id="2452" fill="#dbdbdb"></path><path d="M775.36 373.42H167.89c-9.33 0-18.12-4.34-23.8-11.74a29.98 29.98 0 0 1-5.18-26.03l25.34-94.57c6.22-23.22 21.11-42.64 41.93-54.65 20.8-12.01 45.06-15.22 68.3-8.98l502.28 134.58c2.89 0.76 5.66 1.84 8.42 2.99 13.16 5.54 21.5 19.96 18.69 33.96-2.83 14-14.23 24.44-28.51 24.44z m-568.37-60h342.78L258.95 235.4c-7.76-2.08-15.84-1-22.77 3s-11.89 10.47-13.97 18.21l-15.22 56.81z" p-id="2453" fill="#dbdbdb"></path><path d="M796.06 373.42h-20.7c-3.77 0-7.48-0.7-10.98-2.08-0.21-0.09-2.25-0.92-2.46-1.01L296.25 245.4a29.972 29.972 0 0 1-19.95-17.49 30.004 30.004 0 0 1 1.73-26.48l38.02-65.86c24.83-42.98 80-57.73 122.95-32.95v0.01l372.07 214.82c11.76 6.79 17.5 20.62 13.98 33.74s-15.41 22.23-28.99 22.23zM349.54 197.56l249.84 66.94-190.39-109.92c-14.36-8.27-32.71-3.33-40.99 11l-18.46 31.98z" p-id="2454" fill="#dbdbdb"></path></svg>