<?xml version="1.0" standalone="no"?><!DOCTYPE svg PUBLIC "-//W3C//DTD SVG 1.1//EN" "http://www.w3.org/Graphics/SVG/1.1/DTD/svg11.dtd"><svg t="1548052688551" class="icon" style="" viewBox="0 0 1024 1024" version="1.1" xmlns="http://www.w3.org/2000/svg" p-id="6945" xmlns:xlink="http://www.w3.org/1999/xlink" width="200" height="200"><defs><style type="text/css"></style></defs><path d="M736 0 288 0C176.256 0 85.333333 87.296 85.333333 194.581333L85.333333 669.738667C85.333333 687.402667 99.669333 701.738667 117.333333 701.738667 134.997333 701.738667 149.333333 687.402667 149.333333 669.738667L149.333333 194.581333C149.333333 122.581333 211.541333 64 288 64L736 64C812.458667 64 874.666667 122.581333 874.666667 194.581333L874.666667 820.117333C874.666667 919.488 835.797333 960 740.501333 960L283.52 960C186.965333 960 149.333333 920.789333 149.333333 820.117333 149.333333 802.453333 134.997333 788.117333 117.333333 788.117333 99.669333 788.117333 85.333333 802.453333 85.333333 820.117333 85.333333 955.413333 152.021333 1024 283.52 1024L740.501333 1024C872 1024 938.666667 955.413333 938.666667 820.117333L938.666667 194.581333C938.666667 87.296 847.744 0 736 0ZM784.292267 176.625067C775.822933 161.0944 756.324267 155.483733 740.8576 163.931733 525.518933 281.905067 291.406933 164.7424 289.0816 163.547733 273.444267 155.4624 254.1376 161.627733 246.030933 177.329067 237.924267 193.051733 244.0896 212.337067 259.790933 220.443733 266.8736 224.113067 380.238933 281.243733 527.0336 281.243733 602.980267 281.243733 687.8656 265.947733 771.598933 220.059733 787.108267 211.569067 792.782933 192.1344 784.292267 176.625067ZM658.5216 637.687467C676.1856 637.687467 690.5216 623.351467 690.5216 605.687467 690.5216 588.023467 676.1856 573.687467 658.5216 573.687467L571.6096 573.687467 659.886933 440.930133C669.678933 426.210133 665.6896 406.3488 650.9696 396.5568 636.2496 386.7648 616.4096 390.775467 606.596267 405.474133L513.6256 545.314133 420.6336 405.474133C410.8416 390.7968 390.980267 386.786133 376.260267 396.5568 361.540267 406.3488 357.550933 426.210133 367.342933 440.930133L455.620267 573.687467 372.164267 573.687467C354.500267 573.687467 340.164267 588.023467 340.164267 605.687467 340.164267 623.351467 354.500267 637.687467 372.164267 637.687467L483.332267 637.687467 483.332267 691.5968 372.164267 691.5968C354.500267 691.5968 340.164267 705.9328 340.164267 723.5968 340.164267 741.2608 354.500267 755.5968 372.164267 755.5968L483.332267 755.5968 483.332267 837.943467C483.332267 855.607467 497.668267 869.943467 515.332267 869.943467 532.996267 869.943467 547.332267 855.607467 547.332267 837.943467L547.332267 755.5968 658.5216 755.5968C676.1856 755.5968 690.5216 741.2608 690.5216 723.5968 690.5216 705.9328 676.1856 691.5968 658.5216 691.5968L547.332267 691.5968 547.332267 637.687467 658.5216 637.687467Z" p-id="6946"></path></svg>