<?xml version="1.0" standalone="no"?><!DOCTYPE svg PUBLIC "-//W3C//DTD SVG 1.1//EN" "http://www.w3.org/Graphics/SVG/1.1/DTD/svg11.dtd"><svg t="1548053534493" class="icon" style="" viewBox="0 0 1024 1024" version="1.1" xmlns="http://www.w3.org/2000/svg" p-id="7456" xmlns:xlink="http://www.w3.org/1999/xlink" width="200" height="200"><defs><style type="text/css"></style></defs><path d="M512 232c15.5 0 28-12.5 28-28V92c0-15.5-12.5-28-28-28s-28 12.5-28 28v112c0 15.5 12.5 28 28 28zM512 792c-15.5 0-28 12.5-28 28v112c0 15.5 12.5 28 28 28s28-12.5 28-28V820c0-15.5-12.5-28-28-28zM932 484H820c-15.5 0-28 12.5-28 28s12.5 28 28 28h112c15.5 0 28-12.5 28-28s-12.5-28-28-28zM232 512c0-15.5-12.5-28-28-28H92c-15.5 0-28 12.5-28 28s12.5 28 28 28h112c15.5 0 28-12.5 28-28zM274.4 314c10.9 10.9 28.7 10.9 39.6 0 10.9-10.9 10.9-28.7 0-39.6l-79.2-79.2c-10.9-10.9-28.7-10.9-39.6 0s-10.9 28.7 0 39.6l79.2 79.2zM749.6 710c-10.9-10.9-28.7-10.9-39.6 0s-10.9 28.7 0 39.6l79.2 79.2c10.9 10.9 28.7 10.9 39.6 0 10.9-10.9 10.9-28.7 0-39.6L749.6 710zM749.6 314l79.2-79.2c10.9-10.9 10.9-28.7 0-39.6s-28.7-10.9-39.6 0L710 274.4c-10.9 10.9-10.9 28.7 0 39.6 10.9 10.9 28.7 10.9 39.6 0zM274.4 710l-79.2 79.2c-10.9 10.9-10.9 28.7 0 39.6 10.9 10.9 28.7 10.9 39.6 0l79.2-79.2c10.9-10.9 10.9-28.7 0-39.6s-28.7-10.9-39.6 0zM512 288c-123.7 0-224 100.3-224 224s100.3 224 224 224 224-100.3 224-224-100.3-224-224-224z m0 392c-92.6 0-168-75.4-168-168s75.4-168 168-168 168 75.4 168 168-75.4 168-168 168z" p-id="7457"></path></svg>