<?xml version="1.0" standalone="no"?><!DOCTYPE svg PUBLIC "-//W3C//DTD SVG 1.1//EN" "http://www.w3.org/Graphics/SVG/1.1/DTD/svg11.dtd"><svg t="1578532823038" class="icon" viewBox="0 0 1024 1024" version="1.1" xmlns="http://www.w3.org/2000/svg" p-id="1756" xmlns:xlink="http://www.w3.org/1999/xlink" width="81" height="81"><defs><style type="text/css"></style></defs><path d="M325.554 1023.957c-65.703-141.946-30.718-223.436 19.626-300.104 55.038-83.709 69.544-166.948 69.544-166.948s43.177 58.75 26.111 150.522c76.327-89.042 90.876-230.135 79.4-284.575C693.367 548.884 767.22 821.768 667.3 1023.957c530.325-312.477 131.92-780 62.718-832.904 22.996 52.905 27.262 142.074-19.2 185.209C631.888 64.168 436.483 0 436.483 0c22.954 161.103-84.05 336.967-186.915 468.76-3.84-64.04-7.68-108.583-40.105-170.02-7.21 116.603-93.01 211.959-116.006 328.52-31.145 158.542 23.466 274.292 232.097 396.697z" p-id="1757"></path></svg>