<?xml version="1.0" standalone="no"?><!DOCTYPE svg PUBLIC "-//W3C//DTD SVG 1.1//EN" "http://www.w3.org/Graphics/SVG/1.1/DTD/svg11.dtd"><svg t="1548053367979" class="icon" style="" viewBox="0 0 1024 1024" version="1.1" xmlns="http://www.w3.org/2000/svg" p-id="7259" xmlns:xlink="http://www.w3.org/1999/xlink" width="200" height="200"><defs><style type="text/css"></style></defs><path d="M511.999488 230.707452c-252.130368 0-449.610044 123.552967-449.610044 281.250592 0 17.318434 14.049994 31.369452 31.367405 31.369452 17.318434 0 31.368428-14.049994 31.368428-31.369452 0-73.151044 67.678402-139.195226 168.766728-179.100074-9.843182 26.058492-15.234983 53.791114-15.234982 82.21856 0 128.700197 104.683201 233.383398 233.341442 233.383398S745.340931 543.777751 745.340931 415.077553c0-28.386514-5.392824-56.160067-15.275915-82.218559C831.154365 372.721887 898.872676 438.807001 898.872676 511.959068c0 118.488625-177.181375 218.59867-386.874211 218.59867-155.983587 0-300.488749-55.916521-359.589798-139.115408-10.006911-14.132882-29.570479-17.522072-43.744293-7.391341-14.131859 10.04682-17.440208 29.610388-7.393388 43.742247 71.435982 100.518345 232.647641 165.499311 410.727479 165.499312 252.130368 0 449.610044-123.593899 449.610044-281.33348 0.001023-157.698648-197.478653-281.251615-449.609021-281.251616z m170.60561 184.370101c0 94.105285-76.54228 170.645518-170.60561 170.645519-94.064352 0-170.605609-76.540234-170.605609-170.645519 0-39.618323 14.295588-77.398788 39.537482-107.909685 41.170678-8.699126 85.241406-13.723559 131.068127-13.723559 45.785789 0 89.857541 5.024433 131.027196 13.723559 25.240871 30.550807 39.578414 68.332295 39.578414 107.909685z" fill="" p-id="7260"></path></svg>