<?xml version="1.0" standalone="no"?><!DOCTYPE svg PUBLIC "-//W3C//DTD SVG 1.1//EN" "http://www.w3.org/Graphics/SVG/1.1/DTD/svg11.dtd"><svg t="1582859934921" class="icon" viewBox="0 0 1024 1024" version="1.1" xmlns="http://www.w3.org/2000/svg" p-id="549" xmlns:xlink="http://www.w3.org/1999/xlink" width="200" height="200"><defs><style type="text/css"></style></defs><path d="M859.124394 833.072553c-5.53097 5.548366-12.319583 8.322549-20.329001 8.322549l-86.916559 0c-8.009418 0-14.797008-2.774183-20.329001-8.322549-5.548366-5.54939-8.323573-12.328793-8.323573-20.34742L723.226261 697.16521c0-8.009418 2.775206-14.866592 8.323573-20.580734 5.54939-5.689582 12.319583-8.53335 20.329001-8.53335s14.885012 2.843768 20.572548 8.53335c5.705955 5.714142 8.549723 12.56313 8.549723 20.580734l0 86.445838 57.793264 0c8.009418 0 14.798031 2.843768 20.346397 8.549723 5.54939 5.696746 8.306176 12.56313 8.306176 20.572548s-2.756787 14.788821-8.306176 20.338211l0 0L859.124394 833.07153zM908.245138 738.206952c-8.411577-19.272949-19.857257-36.137035-34.323737-50.603515-14.465456-14.456247-31.321356-25.90295-50.603515-34.341133-19.282159-8.436136-39.767725-12.650111-61.457724-12.650111-22.179139 0-42.890856 4.213975-62.173015 12.650111-19.263739 8.43716-36.138058 19.884886-50.603515 34.341133-14.44806 14.45727-25.895787 31.330566-34.341133 50.603515-8.42795 19.291368-12.633738 39.767725-12.633738 61.449537 0 22.169929 4.204765 42.890856 12.633738 62.173015 8.445346 19.291368 19.892049 36.146245 34.341133 50.612725 14.465456 14.45727 31.339776 25.781176 50.603515 33.982976 19.282159 8.18338 40.012296 12.284791 62.173015 12.284791 21.688975 0 42.175565-4.101411 61.457724-12.284791 19.282159-8.201799 36.138058-19.525706 50.603515-33.982976 14.46648-14.46648 25.91216-31.321356 34.323737-50.612725 8.445346-19.272949 12.668531-40.003086 12.668531-62.173015C920.912645 777.974677 916.689461 757.497297 908.245138 738.206952L908.245138 738.206952 908.245138 738.206952zM226.558457 856.541057c-32.142048 0-58.421574-26.295899-58.421574-58.429761L168.136883 188.753945c0-32.124651 26.279526-58.421574 58.421574-58.421574l497.034147 0c32.125675 0 58.421574 26.287713 58.421574 58.421574l0 404.76058c23.085788 2.783393 44.98454 9.431813 65.035202 19.291368L847.049381 182.133154c0-64.267722-52.576449-116.843148-116.843148-116.843148L219.927433 65.290005c-64.249303 0-116.842125 52.575426-116.842125 116.843148l0 622.61019c0 64.257489 52.593845 116.842125 116.842125 116.842125l378.307092 0c-15.21554-19.176758-27.047006-41.163515-34.58468-65.043389L226.558457 856.54208 226.558457 856.541057zM610.937848 210.488968l63.167668 0L525.836635 464.274022l117.557416 0 0 51.477418L499.993037 515.751441l0 81.890079 143.401014 0 0 47.593971L500.900709 645.23549l0 121.709993-59.416228 0L441.484482 645.23549 293.984103 645.23549l0-47.593971 147.501402 0 0-81.890079L293.984103 515.751441l0-51.477418L420.633594 464.274022 271.054881 210.488968l65.627696 0c69.03019 126.046764 121.990379 205.974142 136.874367 239.765759L610.937848 210.488968 610.937848 210.488968zM610.937848 210.488968" p-id="550" fill="#ffffff"></path></svg>