<?xml version="1.0" standalone="no"?><!DOCTYPE svg PUBLIC "-//W3C//DTD SVG 1.1//EN" "http://www.w3.org/Graphics/SVG/1.1/DTD/svg11.dtd"><svg t="1547426619942" class="icon" style="" viewBox="0 0 1024 1024" version="1.1" xmlns="http://www.w3.org/2000/svg" p-id="3007" xmlns:xlink="http://www.w3.org/1999/xlink" width="128" height="128"><defs><style type="text/css"></style></defs><path d="M211.626667 532.48h354.986666c13.653333 0 27.306667-13.653333 27.306667-27.306667s-13.653333-27.306667-27.306667-27.306666H211.626667c-13.653333 0-27.306667 13.653333-27.306667 27.306666 0 17.066667 13.653333 27.306667 27.306667 27.306667zM211.626667 747.52h143.36c13.653333 0 27.306667-13.653333 27.306666-27.306667s-13.653333-27.306667-27.306666-27.306666H211.626667c-13.653333 0-27.306667 13.653333-27.306667 27.306666 0 17.066667 13.653333 27.306667 27.306667 27.306667zM351.573333 317.44h218.453334c13.653333 0 27.306667-13.653333 27.306666-27.306667s-13.653333-27.306667-27.306666-27.306666H211.626667c-13.653333 0-27.306667 13.653333-27.306667 27.306666s13.653333 27.306667 27.306667 27.306667h139.946666z" p-id="3008" fill="#409EFF"></path><path d="M849.92 119.466667c-17.066667-27.306667-40.96-44.373333-68.266667-58.026667-20.48-6.826667-40.96-6.826667-58.026666-6.826667H180.906667c-17.066667 0-34.133333 0-51.2 3.413334-58.026667 13.653333-98.986667 68.266667-98.986667 129.706666v641.706667c0 37.546667 13.653333 75.093333 44.373333 102.4 23.893333 20.48 51.2 34.133333 85.333334 34.133333h256c13.653333 0 27.306667-13.653333 27.306666-27.306666s-13.653333-27.306667-27.306666-27.306667H157.013333h-3.413333-3.413333 3.413333c-3.413333 0-6.826667 0-10.24-3.413333-3.413333 0-6.826667-3.413333-6.826667-3.413334 6.826667 3.413333-6.826667-3.413333 0 0 0 0-3.413333 0-3.413333-3.413333-3.413333 0-6.826667-3.413333-6.826667-3.413333l-6.826666-3.413334s3.413333 0 3.413333 3.413334l-3.413333-3.413334-10.24-10.24-3.413334-3.413333c3.413333 3.413333-3.413333-6.826667 0 0-3.413333-3.413333-3.413333-6.826667-6.826666-6.826667 0-3.413333-3.413333-6.826667-3.413334-6.826666v3.413333c-3.413333-6.826667-3.413333-3.413333 0-3.413333v-3.413334c-3.413333-3.413333-3.413333-10.24-3.413333-17.066666v-3.413334-3.413333V187.733333v-6.826666-3.413334c0 6.826667 0-6.826667 0 0 0-6.826667 3.413333-13.653333 3.413333-20.48v3.413334c3.413333-6.826667 0-3.413333 0-3.413334v-3.413333c0-3.413333 3.413333-6.826667 3.413334-6.826667 0-3.413333 3.413333-3.413333 3.413333-6.826666-6.826667 3.413333 3.413333-6.826667 0-3.413334l3.413333-3.413333 6.826667-6.826667 3.413333-3.413333s-3.413333 0-3.413333 3.413333l3.413333-3.413333c3.413333-3.413333 10.24-6.826667 13.653334-6.826667h3.413333c3.413333 0 6.826667-3.413333 10.24-3.413333 3.413333 0 6.826667 0 10.24-3.413333h-3.413333H750.933333c-6.826667 0 6.826667 0 0 0h6.826667c3.413333 0 6.826667 0 10.24 3.413333 0 0 3.413333 3.413333 6.826667 3.413333h-3.413334c3.413333 0 3.413333 3.413333 3.413334 0 3.413333 3.413333 10.24 3.413333 13.653333 6.826667l3.413333 3.413333h-3.413333l6.826667 6.826667s0 3.413333 3.413333 3.413333c3.413333 6.826667 3.413333 3.413333 0 0 0 0 0 3.413333 3.413333 3.413334 3.413333 3.413333 3.413333 6.826667 6.826667 13.653333v0l3.413333 6.826667c0 3.413333 3.413333 6.826667 3.413334 10.24v3.413333c0-6.826667 0 6.826667 0 0V372.053333c0 13.653333 13.653333 27.306667 27.306666 27.306667s27.306667-13.653333 27.306667-27.306667V187.733333c0-23.893333-6.826667-47.786667-20.48-68.266666z" p-id="3009" fill="#409EFF"></path><path d="M942.08 781.653333H887.466667l-109.226667-146.773333c44.373333-13.653333 78.506667-54.613333 78.506667-105.813333 0-61.44-51.2-112.64-116.053334-112.64s-116.053333 51.2-116.053333 112.64c0 47.786667 34.133333 88.746667 78.506667 105.813333l-109.226667 146.773333h-54.613333c-27.306667 0-51.2 20.48-51.2 47.786667v78.506667c0 27.306667 23.893333 47.786667 51.2 47.786666h406.186666c27.306667 0 51.2-20.48 51.2-47.786666v-78.506667c-3.413333-23.893333-27.306667-47.786667-54.613333-47.786667z m-273.066667-252.586666c0-37.546667 30.72-68.266667 71.68-68.266667 40.96 0 71.68 30.72 71.68 68.266667s-30.72 68.266667-71.68 68.266666c-40.96 3.413333-71.68-30.72-71.68-68.266666z m64.853334 136.533333h13.653333l88.746667 119.466667H648.533333l85.333334-119.466667z m215.04 245.76c0 3.413333-3.413333 6.826667-6.826667 6.826667H535.893333c-3.413333 0-6.826667-3.413333-6.826666-6.826667v-78.506667c0-3.413333 3.413333-6.826667 6.826666-6.826666h406.186667c3.413333 0 6.826667 3.413333 6.826667 6.826666v78.506667" p-id="3010" fill="#409EFF"></path></svg>