<?xml version="1.0" standalone="no"?><!DOCTYPE svg PUBLIC "-//W3C//DTD SVG 1.1//EN" "http://www.w3.org/Graphics/SVG/1.1/DTD/svg11.dtd"><svg t="1582795368171" class="icon" viewBox="0 0 1024 1024" version="1.1" xmlns="http://www.w3.org/2000/svg" p-id="2285" xmlns:xlink="http://www.w3.org/1999/xlink" width="200" height="200"><defs><style type="text/css"></style></defs><path d="M732.106185 242.629239c-1.709995 105.681669-85.754731 189.721405-191.4414 191.4364-105.695669 1.709995-189.765405-88.324723-191.4394-191.4354C347.519391 136.938571 437.559108 52.863834 540.669785 51.19484c105.695669-1.709995 189.766405 88.329723 191.4354 191.435399 0.531998 32.982897 51.731838 33.033896 51.19984 0C781.41003 125.782606 698.52829 24.565923 582.678653 3.752988 465.70902-17.259946 354.303369 52.002837 312.263501 160.802496c-42.495867 109.987655 10.377967 235.98926 109.828656 293.55308 101.584682 58.802816 235.119263 30.043906 307.812035-60.123812 34.794891-43.160865 52.509835-96.408698 53.400833-151.601525 0.537998-33.033896-50.661841-32.982897-51.19984 0z" p-id="2286"></path><path d="M751.172125 507.910408c23.382927-2.599992 47.319852-1.422996 69.385783 4.776985-34.99489-49.023846-79.302751-90.873715-133.840581-120.779622-28.963909-15.88195-54.793828 28.333911-25.839919 44.205862 34.707891 19.02994 64.664797 43.493864 90.294717 71.796775z m-233.269269 324.052984H209.115824c7.229977-153.767518 70.931778-318.856 211.357338-395.854759 28.952909-15.87695 3.12299-60.087812-25.839919-44.205862-164.013486 89.926718-236.282259 287.327099-237.439256 465.660541-0.092 13.956956 11.714963 25.59992 25.59992 25.599919h352.396895c-6.122981-16.675948-10.996966-34.037893-17.289945-51.199839z" p-id="2287"></path><path d="M51.202319 720.80874c1.217996-116.673634 57.52782-231.479274 165.599481-283.420111 25.973919-12.482961 7.126978-57.839819-19.726938-46.786853l-0.03 0.016 24.907922 6.583979c-90.382717-73.44577-71.229777-218.556315 42.009869-257.222194 31.056903-10.602967 17.719944-60.066812-13.609958-49.366845-67.270789 22.973928-117.533632 76.221761-133.91758 145.806543C99.300169 309.189031 128.380078 386.788788 185.749898 433.404641c6.589979 5.355983 16.122949 10.199968 24.909922 6.58498l0.03-0.016-19.726939-46.785854C67.12027 452.707581 1.394476 587.428159 0.00248 720.80774c-0.342999 33.029896 50.856841 32.998897 51.199839 0z m479.438498 30.176906c1.689995-118.977627 95.056702-216.251322 214.280328-221.335306 118.501629-5.053984 219.876311 90.233717 228.191285 207.071351 8.396974 117.95363-82.87174 223.139301-199.719374 234.796264-117.287632 11.699963-226.153291-75.493763-241.149244-192.219398-1.209996-9.389971-1.469995-18.865941-1.602995-28.312911-0.470999-32.987897-51.670838-33.033896-51.19984 0 1.663995 117.057633 74.382767 217.604318 183.888424 257.811192 108.860659 39.965875 236.02526-1.622995 305.396042-92.61471 70.910778-93.019708 73.624769-223.1493 7.939975-319.675998C910.834625 499.764433 788.07801 458.272563 676.30836 489.018467 559.706725 521.088367 481.129972 632.085019 479.440977 750.985646c-0.470999 33.029896 50.728841 32.987897 51.19984 0z" p-id="2288"></path><path d="M842.860838 725.385726h-90.781716l25.59992 25.59992v-137.659569c0-33.019896-51.19984-33.019896-51.199839 0v137.659569c0 13.956956 11.642964 25.59992 25.599919 25.59992h90.781716c33.018896 0 33.018896-51.19984 0-51.19984z" p-id="2289"></path></svg>