<svg t="1661765463503" class="icon" viewBox="0 0 1024 1024" version="1.1" xmlns="http://www.w3.org/2000/svg" p-id="4631" width="128" height="128"><path d="M926.292271 871.133478c0 18.851568-16.341217 34.133434-36.499287 34.133433H141.56106c-20.15777 0-36.498986-15.281866-36.498986-34.133433 0-18.851267 16.341217-34.133434 36.498986-34.133434h748.231924c20.158071 0.000301 36.499287 15.282167 36.499287 34.133434zM139.195508 774.500452c-18.851568 0-34.133434-13.057801-34.133434-29.165713V147.439118c0-16.107611 15.281866-29.165713 34.133434-29.165714 18.851267 0 34.133434 13.057801 34.133434 29.165714v597.895922c-0.000301 16.107913-15.282167 29.165412-34.133434 29.165412zM926.292271 316.69141V140.227163c0-12.124585-15.282167-21.953759-34.133434-21.953759-18.851568 0-34.133434 9.829174-34.133433 21.953759V316.69141H926.292271zM858.025705 500.324262v243.103104c0 17.161544 15.281866 31.073388 34.133433 31.073387 18.851267 0 34.133434-13.911844 34.133434-31.073387V500.324262h-68.266867z" fill="#e6e6e6" p-id="4632"></path><path d="M105.39743 152.406537c0-18.851568 16.32767-34.133434 36.469484-34.133434h747.620517c20.141513 0 36.469484 15.281866 36.469484 34.133434 0 18.851267-16.32767 34.133434-36.469484 34.133434H141.866914c-20.141513 0-36.469484-15.281866-36.469484-34.133434zM105.39743 741.003713c0-18.851568 16.32767-34.133434 36.469484-34.133434h747.620517c20.141212 0 36.469484 15.281866 36.469484 34.133434 0 18.851267-16.327971 34.133434-36.469484 34.133434H141.866914c-20.141513 0-36.469484-15.282167-36.469484-34.133434z" fill="#e6e6e6" p-id="4633"></path></svg>