<?xml version="1.0" standalone="no"?><!DOCTYPE svg PUBLIC "-//W3C//DTD SVG 1.1//EN" "http://www.w3.org/Graphics/SVG/1.1/DTD/svg11.dtd"><svg t="1545376932133" class="icon" style="" viewBox="0 0 1080 1024" version="1.1" xmlns="http://www.w3.org/2000/svg" p-id="2206" xmlns:xlink="http://www.w3.org/1999/xlink" width="135" height="128"><defs><style type="text/css"></style></defs><path d="M750.933333 113.777778C659.911111 62.577778 551.822222 39.822222 455.111111 56.888889c-22.755556 5.688889-39.822222 22.755556-28.444444 45.511111 5.688889 17.066667 22.755556 28.444444 39.822222 28.444444 85.333333-11.377778 170.666667 5.688889 250.311111 51.2 182.044444 102.4 250.311111 329.955556 164.977778 512-5.688889 17.066667-17.066667 28.444444-17.066667 28.444445l-79.644444-45.511111-17.066667 256c5.688889 5.688889 244.622222-119.466667 244.622222-119.466667l-79.644444-45.511111 17.066666-34.133333c96.711111-227.555556 11.377778-494.933333-199.111111-620.088889zM312.888889 870.4C119.466667 762.311111 56.888889 517.688889 164.977778 324.266667l85.333333 45.511111 17.066667-250.311111L22.755556 238.933333l79.644444 45.511111c-130.844444 233.244444-39.822222 523.377778 170.666667 648.533334 96.711111 56.888889 204.8 73.955556 307.2 56.888889 22.755556-5.688889 34.133333-22.755556 28.444444-45.511111-5.688889-17.066667-22.755556-28.444444-39.822222-28.444445-85.333333 17.066667-176.355556 0-256-45.511111z" fill="#606266" p-id="2207"></path></svg>