<?xml version="1.0" standalone="no"?><!DOCTYPE svg PUBLIC "-//W3C//DTD SVG 1.1//EN" "http://www.w3.org/Graphics/SVG/1.1/DTD/svg11.dtd"><svg t="1556616001489" class="icon" style="" viewBox="0 0 1024 1024" version="1.1" xmlns="http://www.w3.org/2000/svg" p-id="1533" xmlns:xlink="http://www.w3.org/1999/xlink" width="200" height="200"><defs><style type="text/css"></style></defs><path d="M512.078795 67.718311c-244.732887 0-443.1274 198.394513-443.1274 443.1274s198.394513 443.1274 443.1274 443.1274 443.1274-198.395536 443.1274-443.1274S756.811682 67.718311 512.078795 67.718311zM512.078795 889.138476c-208.925357 0-378.292766-169.367409-378.292766-378.292766s169.367409-378.291742 378.292766-378.291742 378.292766 169.367409 378.292766 378.291742S721.004151 889.138476 512.078795 889.138476z" p-id="1534"></path><path d="M592.82891 510.592954 706.648189 623.650893c5.572926 5.536087 6.77531 13.363356 2.684132 17.48114l-65.652256 66.092277c-4.091178 4.118807-11.92561 2.969635-17.498536-2.566452L512.361227 591.600943 399.327848 705.393615c-5.535063 5.572926-13.361309 6.774287-17.480116 2.683109l-66.086138-65.645093c-4.118807-4.090155-2.969635-11.924587 2.566452-17.497513l113.033379-113.792673L317.508377 398.052808c-5.572926-5.536087-6.774287-13.362332-2.683109-17.48114l65.652256-66.092277c4.092201-4.118807 11.92561-2.969635 17.499559 2.566452l113.852024 113.089661 113.076358-113.836675c5.535063-5.572926 13.361309-6.774287 17.479093-2.683109l66.086138 65.645093c4.117784 4.091178 2.969635 11.924587-2.566452 17.497513L592.82891 510.592954 592.82891 510.592954z" p-id="1535"></path></svg>