<?xml version="1.0" standalone="no"?><!DOCTYPE svg PUBLIC "-//W3C//DTD SVG 1.1//EN" "http://www.w3.org/Graphics/SVG/1.1/DTD/svg11.dtd"><svg t="1556530206870" class="icon" style="" viewBox="0 0 1024 1024" version="1.1" xmlns="http://www.w3.org/2000/svg" p-id="4523" xmlns:xlink="http://www.w3.org/1999/xlink" width="200" height="200"><defs><style type="text/css"></style></defs><path d="M910.422866 893.19984 790.027242 772.662164c31.304559-42.578778 49.832623-95.126739 49.832623-151.932168 0-141.623697-115.085541-256.849246-256.539593-256.849246S326.784766 479.105277 326.784766 620.729996c0 141.625741 115.081453 256.850267 256.535505 256.850267 56.736958 0 109.221557-18.550547 151.750259-49.892918l120.396647 120.537677c7.590068 7.593134 17.531657 11.392766 27.478355 11.392766 9.947721 0 19.888287-3.799633 27.478355-11.393788C925.597892 933.026491 925.597892 908.39224 910.422866 893.19984zM583.320271 814.358994c-106.638052 0-193.38986-86.863202-193.38986-193.628998 0-106.765796 86.751808-193.627976 193.38986-193.627976 106.63703 0 193.39497 86.861158 193.39497 193.627976C776.71422 727.496814 689.957301 814.358994 583.320271 814.358994z" p-id="4524"></path><path d="M251.215202 631.364471c0-181.288878 146.780487-328.252295 327.843513-328.252295 110.880192 0 208.904176 55.11307 268.23588 139.472479l0-318.421078C847.294595 91.175856 820.559202 64.383234 787.579657 64.383234L161.910547 64.383234C128.933046 64.383234 102.195609 91.147242 102.195609 124.162555l0 775.672846C102.195609 932.824144 128.931002 959.616766 161.910547 959.616766l417.148168 0C397.995689 959.616766 251.215202 812.653349 251.215202 631.364471zM221.411896 183.747705c0-16.481086 13.343681-29.841118 29.804327-29.841118l447.0598 0c16.459625 0 29.804327 13.360032 29.804327 29.841118 0 16.480064-13.343681 29.841118-29.804327 29.841118L251.215202 213.588822C234.755577 213.588822 221.411896 200.227768 221.411896 183.747705z" p-id="4525"></path></svg>