<?xml version="1.0" standalone="no"?><!DOCTYPE svg PUBLIC "-//W3C//DTD SVG 1.1//EN" "http://www.w3.org/Graphics/SVG/1.1/DTD/svg11.dtd"><svg t="1555136809995" class="icon" style="" viewBox="0 0 1024 1024" version="1.1" xmlns="http://www.w3.org/2000/svg" p-id="2397" xmlns:xlink="http://www.w3.org/1999/xlink" width="200" height="200"><defs><style type="text/css"></style></defs><path d="M991.67785 384.085702l-95.935979 0c-1.663896 0-3.278673 0.258896-4.879124 0.49835-5.835915-17.367553-12.803607-34.20094-20.866237-50.367131 1.279133-0.975211 2.592035-1.936095 3.77293-3.088338l67.829851-67.855434c12.486382-12.456706 12.486382-32.731472 0-45.188178L805.943682 82.404802c-12.486382-12.491499-32.760125-12.491499-45.212738 0l-67.859527 67.855434c-1.151219 1.151219-2.128477 2.463098-3.055592 3.742231-16.214287-8.055466-33.033347-14.999622-50.399877-20.86419 0.243547-1.601474 0.497327-3.216251 0.497327-4.880147L639.913275 32.327266c0-17.654079-14.326287-31.980365-31.980365-31.980365L416.067091 0.346901c-17.654079 0-31.980365 14.326287-31.980365 31.980365l0 95.92984c0 1.663896 0.258896 3.278673 0.49835 4.880147-17.366529 5.835915-34.20094 12.808724-50.367131 20.86419-0.975211-1.279133-1.936095-2.591011-3.088338-3.742231l-67.855434-67.855434c-12.456706-12.491499-32.731472-12.491499-45.188178 0l-135.680169 135.680169c-12.491499 12.456706-12.491499 32.731472 0 45.188178l67.855434 67.855434c1.151219 1.151219 2.463098 2.127454 3.742231 3.088338-8.055466 16.180518-14.999622 33.000602-20.86419 50.367131-1.601474-0.239454-3.216251-0.49835-4.880147-0.49835L32.327266 384.084679c-17.654079 0-31.980365 14.326287-31.980365 31.980365l0 191.866842c0 17.654079 14.326287 31.981389 31.980365 31.981389l95.92984 0c1.663896 0 3.278673-0.25378 4.880147-0.497327 5.835915 17.365506 12.808724 34.198893 20.86419 50.399877-1.279133 0.941442-2.591011 1.90335-3.742231 3.055592l-67.855434 67.859527c-12.491499 12.45159-12.491499 32.726356 0 45.212738l135.680169 135.655609c12.456706 12.486382 32.731472 12.486382 45.188178 0l67.855434-67.829851c1.151219-1.180895 2.127454-2.493797 3.088338-3.77293 16.180518 8.061606 33.000602 15.014972 50.367131 20.866237-0.239454 1.600451-0.49835 3.215228-0.49835 4.879124l0 95.935979c0 17.647939 14.326287 31.974225 31.980365 31.974225l191.866842 0c17.654079 0 31.980365-14.326287 31.980365-31.974225l0-95.935979c0-1.663896-0.25378-3.278673-0.497327-4.879124 17.365506-5.835915 34.198893-12.803607 50.399877-20.866237 0.941442 1.279133 1.90335 2.592035 3.055592 3.77293l67.859527 67.829851c12.452613 12.486382 32.726356 12.486382 45.212738 0L941.599292 805.943682c12.486382-12.486382 12.486382-32.761148 0-45.212738l-67.829851-67.859527c-1.180895-1.151219-2.493797-2.128477-3.77293-3.055592 8.061606-16.214287 15.014972-33.034371 20.866237-50.399877 1.600451 0.243547 3.215228 0.497327 4.879124 0.497327l95.935979 0c17.647939 0 31.974225-14.326287 31.974225-31.981389L1023.652076 416.067091C1023.653099 398.411989 1009.326812 384.085702 991.67785 384.085702L991.67785 384.085702zM512.00307 799.805892c-158.921499 0-287.808962-128.857786-287.808962-287.802822 0-158.921499 128.887462-287.808962 287.808962-287.808962 158.978804 0 287.802822 128.887462 287.802822 287.808962C799.805892 670.948105 670.981874 799.805892 512.00307 799.805892L512.00307 799.805892zM352.111476 512.00307c0-20.933775 4.157693-41.851177 12.169157-61.189617 8.007371-19.336394 19.859303-37.074384 34.659381-51.873438 14.800078-14.800078 32.537044-26.65201 51.873438-34.659381 19.338441-8.012488 40.256866-12.169157 61.189617-12.169157 20.926612 0 41.850154 4.157693 61.183478 12.169157 19.336394 8.007371 37.074384 19.859303 51.873438 34.659381 14.800078 14.799054 26.65201 32.537044 34.659381 51.873438 8.013511 19.338441 12.175297 40.256866 12.175297 61.189617 0 20.926612-4.161786 41.850154-12.175297 61.183478-8.007371 19.336394-19.859303 37.075407-34.659381 51.873438-14.799054 14.800078-32.537044 26.65201-51.873438 34.659381-19.333324 8.013511-40.256866 12.175297-61.183478 12.175297-20.933775 0-41.851177-4.161786-61.189617-12.175297-19.337417-8.007371-37.07336-19.859303-51.873438-34.659381-14.800078-14.799054-26.65201-32.537044-34.659381-51.873438C356.268146 553.853224 352.111476 532.929682 352.111476 512.00307L352.111476 512.00307zM352.111476 512.00307" p-id="2398" fill="#bfcbd9"></path></svg>