<?xml version="1.0" standalone="no"?><!DOCTYPE svg PUBLIC "-//W3C//DTD SVG 1.1//EN" "http://www.w3.org/Graphics/SVG/1.1/DTD/svg11.dtd"><svg t="1548141878629" class="icon" style="" viewBox="0 0 1024 1024" version="1.1" xmlns="http://www.w3.org/2000/svg" p-id="3196" xmlns:xlink="http://www.w3.org/1999/xlink" width="200" height="200"><defs><style type="text/css"></style></defs><path d="M128 512c49.408 0 93.952-19.2 128-49.792V768h512V462.208C801.984 492.8 846.656 512 896 512v384H128V512zM896 0l128 320c0 70.656-57.344 128-128 128s-128-57.344-128-128c0 70.656-57.344 128-128 128s-128-57.344-128-128c0 70.656-57.344 128-128 128s-128-57.344-128-128c0 70.656-57.344 128-128 128s-128-57.344-128-128L128 0h768zM64 1024v-64h896v64H64z" fill="" p-id="3197"></path></svg>