<?xml version="1.0" standalone="no"?><!DOCTYPE svg PUBLIC "-//W3C//DTD SVG 1.1//EN" "http://www.w3.org/Graphics/SVG/1.1/DTD/svg11.dtd"><svg t="1582794793566" class="icon" viewBox="0 0 1024 1024" version="1.1" xmlns="http://www.w3.org/2000/svg" p-id="1889" xmlns:xlink="http://www.w3.org/1999/xlink" width="200" height="200"><defs><style type="text/css"></style></defs><path d="M636.928 859.648H371.2a30.72 30.72 0 0 1 0-61.44h265.728a30.72 30.72 0 0 1 0 61.44z" fill="" p-id="1890"></path><path d="M912.128 814.848a30.72 30.72 0 0 1-30.72-30.72V517.12a96.768 96.768 0 0 0-45.312-81.92l-174.336-110.592a30.72 30.72 0 0 1-14.336-25.6V213.248H157.696v570.88a30.72 30.72 0 0 1-61.44 0V182.528A30.72 30.72 0 0 1 128 151.808h550.4a30.72 30.72 0 0 1 30.72 30.72V281.6l161.28 102.4a157.952 157.952 0 0 1 73.728 133.888v266.24a30.72 30.72 0 0 1-32 30.72z" fill="" p-id="1891"></path><path d="M799.488 574.72H678.4a25.6 25.6 0 0 1-25.6-25.6v-102.4a25.6 25.6 0 0 1 51.2 0v76.8h95.488a25.6 25.6 0 0 1 0 51.2zM730.112 936.448a107.52 107.52 0 1 1 107.52-107.52 107.776 107.776 0 0 1-107.52 107.52z m0-153.6a46.08 46.08 0 1 0 46.08 46.08 46.08 46.08 0 0 0-46.08-46.08zM285.44 936.448a107.52 107.52 0 1 1 107.52-107.52 107.776 107.776 0 0 1-107.52 107.52z m0-153.6a46.08 46.08 0 1 0 46.08 46.08 46.08 46.08 0 0 0-46.08-46.08z" fill="" p-id="1892"></path><path d="M521.472 549.632m-30.72 0a30.72 30.72 0 1 0 61.44 0 30.72 30.72 0 1 0-61.44 0Z" fill="" p-id="1893"></path><path d="M400.128 549.632m-30.72 0a30.72 30.72 0 1 0 61.44 0 30.72 30.72 0 1 0-61.44 0Z" fill="" p-id="1894"></path><path d="M275.968 549.632m-30.72 0a30.72 30.72 0 1 0 61.44 0 30.72 30.72 0 1 0-61.44 0Z" fill="" p-id="1895"></path></svg>