<?xml version="1.0" standalone="no"?><!DOCTYPE svg PUBLIC "-//W3C//DTD SVG 1.1//EN" "http://www.w3.org/Graphics/SVG/1.1/DTD/svg11.dtd"><svg t="1593653994891" class="icon" viewBox="0 0 1024 1024" version="1.1" xmlns="http://www.w3.org/2000/svg" p-id="2189" xmlns:xlink="http://www.w3.org/1999/xlink" width="16" height="16"><defs><style type="text/css"></style></defs><path d="M511.73 44c143.593 0 260 116.406 260 260 0 87.86-43.58 165.54-110.301 212.606a480.902 480.902 0 0 1 78.782 33.619 36.406 36.406 0 0 1 3.321 2.016A206.22 206.22 0 0 1 753.5 552C864.785 552 955 642.215 955 753.5c0 8.65-0.545 17.173-1.603 25.536 0.46 0.854 0.893 1.736 1.293 2.643a480.889 480.889 0 0 1 36.961 132.238c2.568 19.715-11.332 37.78-31.048 40.348-19.716 2.568-37.78-11.333-40.349-31.048a410.128 410.128 0 0 0-8.446-45.048C874.912 924.963 817.714 955 753.5 955 642.215 955 552 864.785 552 753.5c0-69.895 35.587-131.478 89.63-167.618C600.226 572.14 556.51 565 511.73 565c-204.176 0-376.484 149.423-407.173 348.698l-0.887 6.054c-2.735 19.693-20.917 33.44-40.61 30.705-19.694-2.735-33.44-20.917-30.705-40.61 25.926-186.657 157.25-337.14 329.731-393.215l0.002 0.015C295.334 469.586 251.73 391.885 251.73 304c0-143.594 116.406-260 260-260zM753.5 624C681.98 624 624 681.98 624 753.5c0 71.52 57.98 129.5 129.5 129.5 71.52 0 129.5-57.98 129.5-129.5 0-71.52-57.98-129.5-129.5-129.5z m60.241 68.708c14.922 6.81 21.582 24.32 15.039 39.295l-0.202 0.453-47.643 104.392c-10.57 23.159-43.246 23.39-54.257 0.695l-0.327-0.695-47.643-104.392c-6.88-15.073-0.237-32.87 14.836-39.748 14.923-6.81 32.513-0.368 39.538 14.387l0.21 0.45 20.35 44.59 20.351-44.59c6.88-15.074 24.675-21.716 39.748-14.837zM511.729 116c-103.83 0-188 84.17-188 188s84.17 188 188 188 188-84.17 188-188-84.17-188-188-188z" p-id="2190"></path></svg>